<?xml version="1.0" standalone="no"?>
<!DOCTYPE svg PUBLIC "-//W3C//DTD SVG 20010904//EN"
 "http://www.w3.org/TR/2001/REC-SVG-20010904/DTD/svg10.dtd">
<svg version="1.0" xmlns="http://www.w3.org/2000/svg"
 width="620.000000pt" height="620.000000pt" viewBox="0 0 620.000000 620.000000"
 preserveAspectRatio="xMidYMid meet">
<metadata>
Created by potrace 1.11, written by Peter Selinger 2001-2013
</metadata>
<g transform="translate(0.000000,620.000000) scale(0.100000,-0.100000)"
fill="#000000" stroke="none">
<path d="M2945 4853 c-32 -3 -163 -22 -207 -29 -55 -9 -257 -74 -334 -108
-525 -231 -900 -686 -1023 -1243 -12 -51 -21 -106 -21 -122 0 -17 -4 -32 -9
-35 -5 -3 -219 -6 -477 -6 -506 -1 -504 -1 -564 -55 -81 -73 -80 -217 2 -292
57 -52 64 -53 569 -53 368 0 469 -3 470 -12 1 -15 5 -41 20 -118 6 -30 13 -68
16 -85 3 -16 22 -82 43 -146 121 -370 364 -690 690 -910 214 -145 439 -231
740 -284 78 -13 367 -13 465 1 792 110 1388 694 1515 1482 l12 72 451 0 c285
0 466 4 490 11 79 22 139 106 139 195 0 45 -10 70 -49 122 -51 68 -37 66 -562
72 l-474 5 -4 25 c-30 218 -117 466 -228 655 -176 299 -453 551 -770 699 -70
33 -258 102 -304 111 -37 7 -178 35 -206 41 -35 6 -346 13 -390 7z"/>
</g>
</svg>
